<?xml version="1.0" encoding="UTF-8" standalone="no"?>
<!-- Created with Inkscape (http://www.inkscape.org/) -->

<svg
   xmlns:dc="http://purl.org/dc/elements/1.1/"
   xmlns:cc="http://creativecommons.org/ns#"
   xmlns:rdf="http://www.w3.org/1999/02/22-rdf-syntax-ns#"
   xmlns:svg="http://www.w3.org/2000/svg"
   xmlns="http://www.w3.org/2000/svg"
   xmlns:sodipodi="http://sodipodi.sourceforge.net/DTD/sodipodi-0.dtd"
   xmlns:inkscape="http://www.inkscape.org/namespaces/inkscape"
   width="500"
   height="500"
   id="svg2"
   version="1.1"
   inkscape:version="0.47 r22583"
   sodipodi:docname="logo.svg">
  <defs
     id="defs4">
    <inkscape:perspective
       sodipodi:type="inkscape:persp3d"
       inkscape:vp_x="0 : 526.18109 : 1"
       inkscape:vp_y="0 : 1000 : 0"
       inkscape:vp_z="744.09448 : 526.18109 : 1"
       inkscape:persp3d-origin="372.04724 : 350.78739 : 1"
       id="perspective10" />
    <inkscape:perspective
       id="perspective3627"
       inkscape:persp3d-origin="0.5 : 0.33333333 : 1"
       inkscape:vp_z="1 : 0.5 : 1"
       inkscape:vp_y="0 : 1000 : 0"
       inkscape:vp_x="0 : 0.5 : 1"
       sodipodi:type="inkscape:persp3d" />
    <inkscape:perspective
       id="perspective3627-0"
       inkscape:persp3d-origin="0.5 : 0.33333333 : 1"
       inkscape:vp_z="1 : 0.5 : 1"
       inkscape:vp_y="0 : 1000 : 0"
       inkscape:vp_x="0 : 0.5 : 1"
       sodipodi:type="inkscape:persp3d" />
    <inkscape:perspective
       id="perspective3627-2"
       inkscape:persp3d-origin="0.5 : 0.33333333 : 1"
       inkscape:vp_z="1 : 0.5 : 1"
       inkscape:vp_y="0 : 1000 : 0"
       inkscape:vp_x="0 : 0.5 : 1"
       sodipodi:type="inkscape:persp3d" />
    <inkscape:perspective
       id="perspective3669"
       inkscape:persp3d-origin="0.5 : 0.33333333 : 1"
       inkscape:vp_z="1 : 0.5 : 1"
       inkscape:vp_y="0 : 1000 : 0"
       inkscape:vp_x="0 : 0.5 : 1"
       sodipodi:type="inkscape:persp3d" />
    <inkscape:perspective
       id="perspective3691"
       inkscape:persp3d-origin="0.5 : 0.33333333 : 1"
       inkscape:vp_z="1 : 0.5 : 1"
       inkscape:vp_y="0 : 1000 : 0"
       inkscape:vp_x="0 : 0.5 : 1"
       sodipodi:type="inkscape:persp3d" />
    <inkscape:perspective
       id="perspective3713"
       inkscape:persp3d-origin="0.5 : 0.33333333 : 1"
       inkscape:vp_z="1 : 0.5 : 1"
       inkscape:vp_y="0 : 1000 : 0"
       inkscape:vp_x="0 : 0.5 : 1"
       sodipodi:type="inkscape:persp3d" />
    <inkscape:perspective
       id="perspective3759"
       inkscape:persp3d-origin="0.5 : 0.33333333 : 1"
       inkscape:vp_z="1 : 0.5 : 1"
       inkscape:vp_y="0 : 1000 : 0"
       inkscape:vp_x="0 : 0.5 : 1"
       sodipodi:type="inkscape:persp3d" />
    <inkscape:perspective
       id="perspective3759-1"
       inkscape:persp3d-origin="0.5 : 0.33333333 : 1"
       inkscape:vp_z="1 : 0.5 : 1"
       inkscape:vp_y="0 : 1000 : 0"
       inkscape:vp_x="0 : 0.5 : 1"
       sodipodi:type="inkscape:persp3d" />
    <inkscape:perspective
       id="perspective3759-14"
       inkscape:persp3d-origin="0.5 : 0.33333333 : 1"
       inkscape:vp_z="1 : 0.5 : 1"
       inkscape:vp_y="0 : 1000 : 0"
       inkscape:vp_x="0 : 0.5 : 1"
       sodipodi:type="inkscape:persp3d" />
    <inkscape:perspective
       id="perspective3801"
       inkscape:persp3d-origin="0.5 : 0.33333333 : 1"
       inkscape:vp_z="1 : 0.5 : 1"
       inkscape:vp_y="0 : 1000 : 0"
       inkscape:vp_x="0 : 0.5 : 1"
       sodipodi:type="inkscape:persp3d" />
    <inkscape:perspective
       id="perspective3823"
       inkscape:persp3d-origin="0.5 : 0.33333333 : 1"
       inkscape:vp_z="1 : 0.5 : 1"
       inkscape:vp_y="0 : 1000 : 0"
       inkscape:vp_x="0 : 0.5 : 1"
       sodipodi:type="inkscape:persp3d" />
    <inkscape:perspective
       id="perspective3845"
       inkscape:persp3d-origin="0.5 : 0.33333333 : 1"
       inkscape:vp_z="1 : 0.5 : 1"
       inkscape:vp_y="0 : 1000 : 0"
       inkscape:vp_x="0 : 0.5 : 1"
       sodipodi:type="inkscape:persp3d" />
    <inkscape:perspective
       id="perspective2876"
       inkscape:persp3d-origin="0.5 : 0.33333333 : 1"
       inkscape:vp_z="1 : 0.5 : 1"
       inkscape:vp_y="0 : 1000 : 0"
       inkscape:vp_x="0 : 0.5 : 1"
       sodipodi:type="inkscape:persp3d" />
  </defs>
  <sodipodi:namedview
     id="base"
     pagecolor="#ffffff"
     bordercolor="#666666"
     borderopacity="1.0"
     inkscape:pageopacity="0.0"
     inkscape:pageshadow="2"
     inkscape:zoom="1.0366185"
     inkscape:cx="296.84856"
     inkscape:cy="253.39066"
     inkscape:document-units="px"
     inkscape:current-layer="layer1"
     showgrid="false"
     inkscape:window-width="923"
     inkscape:window-height="985"
     inkscape:window-x="973"
     inkscape:window-y="161"
     inkscape:window-maximized="0"
     showguides="true"
     inkscape:guide-bbox="true"
     inkscape:snap-bbox="true"
     inkscape:snap-global="false" />
  <metadata
     id="metadata7">
    <rdf:RDF>
      <cc:Work
         rdf:about="">
        <dc:format>image/svg+xml</dc:format>
        <dc:type
           rdf:resource="http://purl.org/dc/dcmitype/StillImage" />
        <dc:title />
      </cc:Work>
    </rdf:RDF>
  </metadata>
  <g
     inkscape:label="Layer 1"
     inkscape:groupmode="layer"
     id="layer1"
     transform="translate(0,-552.36218)">
    <rect
       style="fill:#20b2aa;stroke:#20b2aa;stroke-width:0.87188679"
       id="rect3594"
       width="349.12811"
       height="349.12811"
       x="75.435944"
       y="627.7981" />
    <path
       sodipodi:type="arc"
       style="fill:#20b2aa;stroke:#20b2aa"
       id="path3617"
       sodipodi:cx="63.92857"
       sodipodi:cy="74.285713"
       sodipodi:rx="42.5"
       sodipodi:ry="42.857143"
       d="m 106.42857,74.285713 c 0,23.669347 -19.027898,42.857147 -42.5,42.857147 -23.472102,0 -42.5,-19.1878 -42.5,-42.857147 0,-23.669347 19.027898,-42.857143 42.5,-42.857143 23.472102,0 42.5,19.187796 42.5,42.857143 z"
       transform="matrix(2.3256943,0,0,2.3063135,-48.678311,481.03604)" />
    <path
       sodipodi:type="arc"
       style="fill:#20b2aa;stroke:#20b2aa"
       id="path3617-4"
       sodipodi:cx="63.92857"
       sodipodi:cy="74.285713"
       sodipodi:rx="42.5"
       sodipodi:ry="42.857143"
       d="m 106.42857,74.285713 c 0,23.669347 -19.027898,42.857147 -42.5,42.857147 -23.472102,0 -42.5,-19.1878 -42.5,-42.857147 0,-23.669347 19.027898,-42.857143 42.5,-42.857143 23.472102,0 42.5,19.187796 42.5,42.857143 z"
       transform="matrix(2.3256943,0,0,2.3063135,-48.678309,781.03601)" />
    <path
       sodipodi:type="arc"
       style="fill:#20b2aa;stroke:#20b2aa"
       id="path3617-3"
       sodipodi:cx="63.92857"
       sodipodi:cy="74.285713"
       sodipodi:rx="42.5"
       sodipodi:ry="42.857143"
       d="m 106.42857,74.285713 c 0,23.669347 -19.027898,42.857147 -42.5,42.857147 -23.472102,0 -42.5,-19.1878 -42.5,-42.857147 0,-23.669347 19.027898,-42.857143 42.5,-42.857143 23.472102,0 42.5,19.187796 42.5,42.857143 z"
       transform="matrix(2.3256943,0,0,2.3063135,251.32168,781.03604)" />
    <path
       sodipodi:type="arc"
       style="fill:#20b2aa;stroke:#20b2aa"
       id="path3617-5"
       sodipodi:cx="63.92857"
       sodipodi:cy="74.285713"
       sodipodi:rx="42.5"
       sodipodi:ry="42.857143"
       d="m 106.42857,74.285713 c 0,23.669347 -19.027898,42.857147 -42.5,42.857147 -23.472102,0 -42.5,-19.1878 -42.5,-42.857147 0,-23.669347 19.027898,-42.857143 42.5,-42.857143 23.472102,0 42.5,19.187796 42.5,42.857143 z"
       transform="matrix(2.3256943,0,0,2.3063135,251.32169,481.03604)" />
    <rect
       style="fill:#20b2aa;stroke:#20b2aa;stroke-width:0.84907514"
       id="rect3659"
       width="299.15094"
       height="99.150925"
       x="100.42454"
       y="552.78674" />
    <rect
       style="fill:#20b2aa;stroke:#20b2aa;stroke-width:0.84907514"
       id="rect3659-6"
       width="299.15094"
       height="99.150925"
       x="652.78674"
       y="-99.575462"
       transform="matrix(0,1,-1,0,0,0)" />
    <rect
       style="fill:#20b2aa;stroke:#20b2aa;stroke-width:0.84907514"
       id="rect3659-6-4"
       width="299.15094"
       height="99.150925"
       x="652.78674"
       y="-499.57544"
       transform="matrix(0,1,-1,0,0,0)" />
    <rect
       style="fill:#ffffff;stroke:#ffffff;stroke-width:0.49167389"
       id="rect3747-47"
       width="176.38159"
       height="10.47506"
       x="400.9418"
       y="550.7757"
       transform="matrix(0.85865756,0.51254969,0.00899728,0.99995952,0,0)" />
    <rect
       style="fill:#20b2aa;stroke:#20b2aa;stroke-width:0.84907514"
       id="rect3659-4"
       width="299.15094"
       height="99.150925"
       x="100.42454"
       y="952.78674" />
    <rect
       style="fill:#ffffff;stroke:#ffffff;stroke-width:0.48520449"
       id="rect3747"
       width="174.06078"
       height="10.33723"
       x="-8.8371248"
       y="757.14655"
       transform="matrix(0.85865756,0.51254969,0.00899728,0.99995952,0,0)" />
    <path
       sodipodi:type="arc"
       style="fill:#ffffff;stroke:#ffffff"
       id="path3749-6"
       sodipodi:cx="118.57143"
       sodipodi:cy="131.78572"
       sodipodi:rx="34.285713"
       sodipodi:ry="33.214287"
       d="m 152.85714,131.78572 c 0,18.34374 -15.35024,33.21429 -34.28571,33.21429 -18.93548,0 -34.285717,-14.87055 -34.285717,-33.21429 0,-18.34374 15.350237,-33.214286 34.285717,-33.214286 18.93547,0 34.28571,14.870546 34.28571,33.214286 z"
       transform="matrix(0.7185206,0,0,0.74169863,249.80399,514.61689)" />
    <rect
       style="fill:#ffffff;stroke:#ffffff;stroke-width:0.48520449"
       id="rect3747-4"
       width="174.06078"
       height="10.33723"
       x="209.51617"
       y="-964.56445"
       transform="matrix(0.85865756,-0.51254969,0.00899728,-0.99995952,0,0)" />
    <rect
       style="fill:#ffffff;stroke:#ffffff;stroke-width:1.12787414"
       id="rect3791-1"
       width="8.8721256"
       height="98.872124"
       x="330.56393"
       y="629.80194" />
    <path
       sodipodi:type="arc"
       style="fill:#6495ed;stroke:#6495ed"
       id="path3749-5"
       sodipodi:cx="118.57143"
       sodipodi:cy="131.78572"
       sodipodi:rx="34.285713"
       sodipodi:ry="33.214287"
       d="m 152.85714,131.78572 c 0,18.34374 -15.35024,33.21429 -34.28571,33.21429 -18.93548,0 -34.285717,-14.87055 -34.285717,-33.21429 0,-18.34374 15.350237,-33.214286 34.285717,-33.214286 18.93547,0 34.28571,14.870546 34.28571,33.214286 z"
       transform="matrix(1.0059289,0,0,1.0383781,215.72558,615.51877)" />
    <rect
       style="fill:#ffffff;stroke:#ffffff;stroke-width:0.77929765"
       id="rect3791"
       width="4.2207022"
       height="99.220703"
       x="157.88965"
       y="872.75183" />
    <rect
       style="fill:#ffffff;stroke:#ffffff;stroke-width:0.77929765"
       id="rect3791-4"
       width="4.2207022"
       height="99.220703"
       x="167.88965"
       y="872.75183" />
    <path
       sodipodi:type="arc"
       style="fill:#696969;stroke:#696969"
       id="path3749"
       sodipodi:cx="118.57143"
       sodipodi:cy="131.78572"
       sodipodi:rx="34.285713"
       sodipodi:ry="33.214287"
       d="m 152.85714,131.78572 c 0,18.34374 -15.35024,33.21429 -34.28571,33.21429 -18.93548,0 -34.285717,-14.87055 -34.285717,-33.21429 0,-18.34374 15.350237,-33.214286 34.285717,-33.214286 18.93547,0 34.28571,14.870546 34.28571,33.214286 z"
       transform="matrix(1.0059289,0,0,1.0383781,45.725578,715.51877)" />
    <path
       sodipodi:type="arc"
       style="fill:#cd5c5c;stroke:#cd5c5c"
       id="path3749-7"
       sodipodi:cx="118.57143"
       sodipodi:cy="131.78572"
       sodipodi:rx="34.285713"
       sodipodi:ry="33.214287"
       d="m 152.85714,131.78572 c 0,18.34374 -15.35024,33.21429 -34.28571,33.21429 -18.93548,0 -34.285717,-14.87055 -34.285717,-33.21429 0,-18.34374 15.350237,-33.214286 34.285717,-33.214286 18.93547,0 34.28571,14.870546 34.28571,33.214286 z"
       transform="matrix(1.0059289,0,0,1.0383781,45.725578,855.51877)" />
    <text
       xml:space="preserve"
       style="font-size:50.38624573px;font-style:normal;font-variant:normal;font-weight:normal;font-stretch:normal;fill:#ffffff;fill-opacity:1;stroke:#ffffff;stroke-width:1.00271142;font-family:Armata;-inkscape-font-specification:Armata"
       x="233.81073"
       y="1046.8774"
       id="text3859"
       transform="scale(1.0454241,0.95654959)"><tspan
         sodipodi:role="line"
         id="tspan3861"
         x="233.81073"
         y="1046.8774"
         style="font-size:50.38624573px;font-style:normal;font-variant:normal;font-weight:normal;font-stretch:normal;stroke-width:1.00271142;font-family:Armata;-inkscape-font-specification:Armata">Bio<tspan
   style="font-style:normal;stroke-width:1.00271142;-inkscape-font-specification:Armata"
   id="tspan2858">Java</tspan></tspan></text>
  </g>
</svg>
