<?xml version="1.0" encoding="UTF-8" standalone="no"?>
<!-- Created with Inkscape (http://www.inkscape.org/) -->

<svg
   xmlns:dc="http://purl.org/dc/elements/1.1/"
   xmlns:cc="http://creativecommons.org/ns#"
   xmlns:rdf="http://www.w3.org/1999/02/22-rdf-syntax-ns#"
   xmlns:svg="http://www.w3.org/2000/svg"
   xmlns="http://www.w3.org/2000/svg"
   xmlns:sodipodi="http://sodipodi.sourceforge.net/DTD/sodipodi-0.dtd"
   xmlns:inkscape="http://www.inkscape.org/namespaces/inkscape"
   width="600"
   height="700"
   id="svg2"
   version="1.1"
   inkscape:version="0.48.3.1 r9886"
   sodipodi:docname="logo_v6.svg"
   inkscape:export-filename="/home/aleix/logo/submissions/lafita_pb/logo_v5.png"
   inkscape:export-xdpi="90"
   inkscape:export-ydpi="90">
  <defs
     id="defs4">
    <inkscape:perspective
       sodipodi:type="inkscape:persp3d"
       inkscape:vp_x="0 : 526.18109 : 1"
       inkscape:vp_y="0 : 1000 : 0"
       inkscape:vp_z="744.09448 : 526.18109 : 1"
       inkscape:persp3d-origin="372.04724 : 350.78739 : 1"
       id="perspective10" />
    <inkscape:perspective
       id="perspective3627"
       inkscape:persp3d-origin="0.5 : 0.33333333 : 1"
       inkscape:vp_z="1 : 0.5 : 1"
       inkscape:vp_y="0 : 1000 : 0"
       inkscape:vp_x="0 : 0.5 : 1"
       sodipodi:type="inkscape:persp3d" />
    <inkscape:perspective
       id="perspective3627-0"
       inkscape:persp3d-origin="0.5 : 0.33333333 : 1"
       inkscape:vp_z="1 : 0.5 : 1"
       inkscape:vp_y="0 : 1000 : 0"
       inkscape:vp_x="0 : 0.5 : 1"
       sodipodi:type="inkscape:persp3d" />
    <inkscape:perspective
       id="perspective3627-2"
       inkscape:persp3d-origin="0.5 : 0.33333333 : 1"
       inkscape:vp_z="1 : 0.5 : 1"
       inkscape:vp_y="0 : 1000 : 0"
       inkscape:vp_x="0 : 0.5 : 1"
       sodipodi:type="inkscape:persp3d" />
    <inkscape:perspective
       id="perspective3669"
       inkscape:persp3d-origin="0.5 : 0.33333333 : 1"
       inkscape:vp_z="1 : 0.5 : 1"
       inkscape:vp_y="0 : 1000 : 0"
       inkscape:vp_x="0 : 0.5 : 1"
       sodipodi:type="inkscape:persp3d" />
    <inkscape:perspective
       id="perspective3691"
       inkscape:persp3d-origin="0.5 : 0.33333333 : 1"
       inkscape:vp_z="1 : 0.5 : 1"
       inkscape:vp_y="0 : 1000 : 0"
       inkscape:vp_x="0 : 0.5 : 1"
       sodipodi:type="inkscape:persp3d" />
    <inkscape:perspective
       id="perspective3713"
       inkscape:persp3d-origin="0.5 : 0.33333333 : 1"
       inkscape:vp_z="1 : 0.5 : 1"
       inkscape:vp_y="0 : 1000 : 0"
       inkscape:vp_x="0 : 0.5 : 1"
       sodipodi:type="inkscape:persp3d" />
    <inkscape:perspective
       id="perspective3759"
       inkscape:persp3d-origin="0.5 : 0.33333333 : 1"
       inkscape:vp_z="1 : 0.5 : 1"
       inkscape:vp_y="0 : 1000 : 0"
       inkscape:vp_x="0 : 0.5 : 1"
       sodipodi:type="inkscape:persp3d" />
    <inkscape:perspective
       id="perspective3759-1"
       inkscape:persp3d-origin="0.5 : 0.33333333 : 1"
       inkscape:vp_z="1 : 0.5 : 1"
       inkscape:vp_y="0 : 1000 : 0"
       inkscape:vp_x="0 : 0.5 : 1"
       sodipodi:type="inkscape:persp3d" />
    <inkscape:perspective
       id="perspective3759-14"
       inkscape:persp3d-origin="0.5 : 0.33333333 : 1"
       inkscape:vp_z="1 : 0.5 : 1"
       inkscape:vp_y="0 : 1000 : 0"
       inkscape:vp_x="0 : 0.5 : 1"
       sodipodi:type="inkscape:persp3d" />
    <inkscape:perspective
       id="perspective3801"
       inkscape:persp3d-origin="0.5 : 0.33333333 : 1"
       inkscape:vp_z="1 : 0.5 : 1"
       inkscape:vp_y="0 : 1000 : 0"
       inkscape:vp_x="0 : 0.5 : 1"
       sodipodi:type="inkscape:persp3d" />
    <inkscape:perspective
       id="perspective3823"
       inkscape:persp3d-origin="0.5 : 0.33333333 : 1"
       inkscape:vp_z="1 : 0.5 : 1"
       inkscape:vp_y="0 : 1000 : 0"
       inkscape:vp_x="0 : 0.5 : 1"
       sodipodi:type="inkscape:persp3d" />
    <inkscape:perspective
       id="perspective3845"
       inkscape:persp3d-origin="0.5 : 0.33333333 : 1"
       inkscape:vp_z="1 : 0.5 : 1"
       inkscape:vp_y="0 : 1000 : 0"
       inkscape:vp_x="0 : 0.5 : 1"
       sodipodi:type="inkscape:persp3d" />
    <inkscape:perspective
       id="perspective2876"
       inkscape:persp3d-origin="0.5 : 0.33333333 : 1"
       inkscape:vp_z="1 : 0.5 : 1"
       inkscape:vp_y="0 : 1000 : 0"
       inkscape:vp_x="0 : 0.5 : 1"
       sodipodi:type="inkscape:persp3d" />
    <inkscape:perspective
       id="perspective3627-5"
       inkscape:persp3d-origin="0.5 : 0.33333333 : 1"
       inkscape:vp_z="1 : 0.5 : 1"
       inkscape:vp_y="0 : 1000 : 0"
       inkscape:vp_x="0 : 0.5 : 1"
       sodipodi:type="inkscape:persp3d" />
  </defs>
  <sodipodi:namedview
     id="base"
     pagecolor="#ffffff"
     bordercolor="#666666"
     borderopacity="1.0"
     inkscape:pageopacity="0.0"
     inkscape:pageshadow="2"
     inkscape:zoom="0.90509668"
     inkscape:cx="202.63934"
     inkscape:cy="407.27167"
     inkscape:document-units="px"
     inkscape:current-layer="layer1"
     showgrid="false"
     inkscape:window-width="1366"
     inkscape:window-height="715"
     inkscape:window-x="0"
     inkscape:window-y="0"
     inkscape:window-maximized="1"
     showguides="true"
     inkscape:guide-bbox="true"
     inkscape:snap-bbox="true"
     inkscape:snap-global="false" />
  <metadata
     id="metadata7">
    <rdf:RDF>
      <cc:Work
         rdf:about="">
        <dc:format>image/svg+xml</dc:format>
        <dc:type
           rdf:resource="http://purl.org/dc/dcmitype/StillImage" />
        <dc:title></dc:title>
      </cc:Work>
    </rdf:RDF>
  </metadata>
  <g
     inkscape:label="Layer 1"
     inkscape:groupmode="layer"
     id="layer1"
     transform="translate(0,-352.36218)">
    <rect
       style="fill:#00933b;fill-opacity:1;stroke:none"
       id="rect3594"
       width="350"
       height="350"
       x="125"
       y="477.36218" />
    <path
       sodipodi:type="arc"
       style="fill:#00933b;fill-opacity:1;stroke:none"
       id="path3617"
       sodipodi:cx="63.92857"
       sodipodi:cy="74.285713"
       sodipodi:rx="42.5"
       sodipodi:ry="42.857143"
       d="m 106.42857,74.285713 c 0,23.669347 -19.027898,42.857147 -42.5,42.857147 -23.472102,0 -42.5,-19.1878 -42.5,-42.857147 0,-23.669347 19.027898,-42.857143 42.5,-42.857143 23.472102,0 42.5,19.187796 42.5,42.857143 z"
       transform="matrix(2.3529412,0,0,2.3333333,-0.42016472,329.02885)" />
    <path
       sodipodi:type="arc"
       style="fill:#00933b;fill-opacity:1;stroke:none"
       id="path3617-4"
       sodipodi:cx="63.92857"
       sodipodi:cy="74.285713"
       sodipodi:rx="42.5"
       sodipodi:ry="42.857143"
       d="m 106.42857,74.285713 c 0,23.669347 -19.027898,42.857147 -42.5,42.857147 -23.472102,0 -42.5,-19.1878 -42.5,-42.857147 0,-23.669347 19.027898,-42.857143 42.5,-42.857143 23.472102,0 42.5,19.187796 42.5,42.857143 z"
       transform="matrix(2.3529412,0,0,2.3333333,-0.42016472,629.02885)" />
    <path
       sodipodi:type="arc"
       style="fill:#00933b;fill-opacity:1;stroke:none"
       id="path3617-3"
       sodipodi:cx="63.92857"
       sodipodi:cy="74.285713"
       sodipodi:rx="42.5"
       sodipodi:ry="42.857143"
       d="m 106.42857,74.285713 c 0,23.669347 -19.027898,42.857147 -42.5,42.857147 -23.472102,0 -42.5,-19.1878 -42.5,-42.857147 0,-23.669347 19.027898,-42.857143 42.5,-42.857143 23.472102,0 42.5,19.187796 42.5,42.857143 z"
       transform="matrix(2.3529412,0,0,2.3333333,299.57984,629.02885)" />
    <path
       sodipodi:type="arc"
       style="fill:#00933b;fill-opacity:1;stroke:none"
       id="path3617-5"
       sodipodi:cx="63.92857"
       sodipodi:cy="74.285713"
       sodipodi:rx="42.5"
       sodipodi:ry="42.857143"
       d="m 106.42857,74.285713 c 0,23.669347 -19.027898,42.857147 -42.5,42.857147 -23.472102,0 -42.5,-19.1878 -42.5,-42.857147 0,-23.669347 19.027898,-42.857143 42.5,-42.857143 23.472102,0 42.5,19.187796 42.5,42.857143 z"
       transform="matrix(2.3529412,0,0,2.3333333,299.57984,329.02885)" />
    <rect
       style="fill:#00933b;fill-opacity:1;stroke:none"
       id="rect3659"
       width="300"
       height="100"
       x="150"
       y="402.36218" />
    <rect
       style="fill:#00933b;fill-opacity:1;stroke:none"
       id="rect3659-6"
       width="300"
       height="100"
       x="502.36218"
       y="-150"
       transform="matrix(0,1,-1,0,0,0)" />
    <rect
       style="fill:#00933b;fill-opacity:1;stroke:none"
       id="rect3659-6-4"
       width="300"
       height="100"
       x="502.36218"
       y="-550"
       transform="matrix(0,1,-1,0,0,0)" />
    <rect
       style="fill:#00933b;fill-opacity:1;stroke:none"
       id="rect3659-4"
       width="300"
       height="100"
       x="150"
       y="802.36218" />
    <path
       sodipodi:type="arc"
       style="fill:#ffffff;stroke:none"
       id="path3749-6"
       sodipodi:cx="118.57143"
       sodipodi:cy="131.78572"
       sodipodi:rx="34.285713"
       sodipodi:ry="33.214287"
       d="m 152.85714,131.78572 c 0,18.34374 -15.35024,33.21429 -34.28571,33.21429 -18.93548,0 -34.285717,-14.87055 -34.285717,-33.21429 0,-18.34374 15.350237,-33.214286 34.285717,-33.214286 18.93547,0 34.28571,14.870546 34.28571,33.214286 z"
       transform="matrix(0.72916669,0,0,0.75268815,298.54167,363.16863)" />
    <rect
       style="fill:#ffffff;stroke:none"
       id="rect3791-1"
       width="10"
       height="100"
       x="380"
       y="477.36218" />
    <rect
       style="fill:#ffffff;fill-opacity:1;stroke:none"
       id="rect3673"
       width="189.40533"
       height="9.0081272"
       x="-167.31668"
       y="711.57159"
       transform="matrix(0.87340836,-0.48698855,0.50751857,0.86164082,0,0)" />
    <path
       sodipodi:type="arc"
       style="fill:#ffffff;fill-opacity:1;stroke:none"
       id="path3749-5"
       sodipodi:cx="118.57143"
       sodipodi:cy="131.78572"
       sodipodi:rx="34.285713"
       sodipodi:ry="33.214287"
       d="m 152.85714,131.78572 c 0,18.34374 -15.35024,33.21429 -34.28571,33.21429 -18.93548,0 -34.285717,-14.87055 -34.285717,-33.21429 0,-18.34374 15.350237,-33.214286 34.285717,-33.214286 18.93547,0 34.28571,14.870546 34.28571,33.214286 z"
       transform="matrix(1.0208334,0,0,1.0537634,263.95834,463.49121)" />
    <rect
       style="fill:#ffffff;stroke:none"
       id="rect3791"
       width="5"
       height="100"
       x="207.5"
       y="722.36218" />
    <rect
       style="fill:#ffffff;stroke:none"
       id="rect3791-4"
       width="5"
       height="100"
       x="217.5"
       y="722.36218" />
    <path
       sodipodi:type="arc"
       style="fill:#ffffff;fill-opacity:1;stroke:none"
       id="path3749"
       sodipodi:cx="118.57143"
       sodipodi:cy="131.78572"
       sodipodi:rx="34.285713"
       sodipodi:ry="33.214287"
       d="m 152.85714,131.78572 c 0,18.34374 -15.35024,33.21429 -34.28571,33.21429 -18.93548,0 -34.285717,-14.87055 -34.285717,-33.21429 0,-18.34374 15.350237,-33.214286 34.285717,-33.214286 18.93547,0 34.28571,14.870546 34.28571,33.214286 z"
       transform="matrix(1.0208334,0,0,1.0537634,93.95833,563.49121)" />
    <path
       sodipodi:type="arc"
       style="fill:#ffffff;fill-opacity:1;stroke:none"
       id="path3749-7"
       sodipodi:cx="118.57143"
       sodipodi:cy="131.78572"
       sodipodi:rx="34.285713"
       sodipodi:ry="33.214287"
       d="m 152.85714,131.78572 c 0,18.34374 -15.35024,33.21429 -34.28571,33.21429 -18.93548,0 -34.285717,-14.87055 -34.285717,-33.21429 0,-18.34374 15.350237,-33.214286 34.285717,-33.214286 18.93547,0 34.28571,14.870546 34.28571,33.214286 z"
       transform="matrix(1.0208334,0,0,1.0537634,93.95833,713.49121)" />
    <text
       xml:space="preserve"
       style="font-size:120px;font-style:normal;font-variant:normal;font-weight:normal;font-stretch:normal;text-align:start;line-height:0%;letter-spacing:0px;word-spacing:0px;text-anchor:start;fill:#ffffff;fill-opacity:1;stroke:none;font-family:Ubuntu;-inkscape-font-specification:Ubuntu"
       x="137.75772"
       y="812.44012"
       id="text3036"
       sodipodi:linespacing="0%"
       transform="scale(1.0087608,0.99131528)"><tspan
         sodipodi:role="line"
         id="tspan3038"
         x="137.75772"
         y="812.44012"
         style="font-size:100px">B o<tspan
   style="font-weight:bold;-inkscape-font-specification:Ubuntu Bold"
   id="tspan3914">Java</tspan></tspan></text>
    <path
       sodipodi:type="arc"
       style="fill:#ffffff;fill-opacity:1;stroke:none"
       id="path3749-72"
       sodipodi:cx="118.57143"
       sodipodi:cy="131.78572"
       sodipodi:rx="34.285713"
       sodipodi:ry="33.214287"
       d="m 152.85714,131.78572 c 0,18.34374 -15.35024,33.21429 -34.28571,33.21429 -18.93548,0 -34.285717,-14.87055 -34.285717,-33.21429 0,-18.34374 15.350237,-33.214286 34.285717,-33.214286 18.93547,0 34.28571,14.870546 34.28571,33.214286 z"
       transform="matrix(1.0208334,0,0,1.0537634,-76.041671,463.49121)" />
    <path
       sodipodi:type="arc"
       style="fill:#ffffff;fill-opacity:1;stroke:none"
       id="path3749-4"
       sodipodi:cx="118.57143"
       sodipodi:cy="131.78572"
       sodipodi:rx="34.285713"
       sodipodi:ry="33.214287"
       d="m 152.85714,131.78572 c 0,18.34374 -15.35024,33.21429 -34.28571,33.21429 -18.93548,0 -34.285717,-14.87055 -34.285717,-33.21429 0,-18.34374 15.350237,-33.214286 34.285717,-33.214286 18.93547,0 34.28571,14.870546 34.28571,33.214286 z"
       transform="matrix(1.0208334,0,0,1.0537634,433.95833,563.49121)" />
    <rect
       style="fill:#ffffff;fill-opacity:1;stroke:none"
       id="rect3673-4"
       width="189.40533"
       height="9.0081272"
       x="642.14319"
       y="-346.49609"
       transform="matrix(0.87340836,0.48698855,0.50751857,-0.86164082,0,0)" />
    <rect
       style="fill:#ffffff;fill-opacity:1;stroke:none"
       id="rect3673-4-1"
       width="189.40533"
       height="9.0081272"
       x="348.52066"
       y="-511.11597"
       transform="matrix(0.87340836,0.48698855,0.50751857,-0.86164082,0,0)" />
  </g>
</svg>
